<?xml version="1.0" standalone="no"?><!DOCTYPE svg PUBLIC "-//W3C//DTD SVG 1.1//EN" "http://www.w3.org/Graphics/SVG/1.1/DTD/svg11.dtd"><svg t="1661519868356" class="icon" viewBox="0 0 1024 1024" version="1.1" xmlns="http://www.w3.org/2000/svg" p-id="17114" xmlns:xlink="http://www.w3.org/1999/xlink" width="200" height="200"><path d="M544 21.333333v77.973334l42.346667-42.304 45.269333 45.226666L544 189.845333V362.666667h-64V192l-14.336-14.336v-0.021333l-75.413333-75.392 45.248-45.248L480 101.482667V21.333333h64z" fill="#2674FD" p-id="17115"></path><path d="M881.28 188.437333l-55.146667 55.125334 59.861334 0.042666v64l-123.861334-0.042666-122.24 122.24-45.226666-45.269334 120.661333-120.682666v-20.266667h0.042667l-0.042667-106.666667h64v62.933334l56.682667-56.682667 45.248 45.269333z" fill="#BED5FF" p-id="17116"></path><path d="M1001.6 545.066667h-77.973333l42.304 42.368-45.248 45.226666-87.573334-87.594666H660.266667v-64h170.666666l14.314667-14.314667h0.042667l75.392-75.434667 45.248 45.248-44.48 44.501334h80.149333v64z" fill="#2674FD" p-id="17117"></path><path d="M834.496 882.346667l-55.125333-55.146667-0.042667 59.861333h-64l0.021333-123.861333-122.218666-122.24 45.269333-45.226667 120.682667 120.661334h20.266666v0.042666l106.666667-0.042666v64h-62.933333l56.661333 56.682666-45.248 45.269334z" fill="#BED5FF" p-id="17118"></path><path d="M477.866667 1002.666667v-77.973334l-42.368 42.304-45.248-45.226666 87.616-87.594667V661.333333h64v170.666667l14.314666 14.336v0.021333l75.434667 75.392-45.269333 45.248-44.48-44.48V1002.666667h-64z" fill="#2674FD" p-id="17119"></path><path d="M140.586667 835.562667l55.146666-55.125334-59.882666-0.042666v-64l123.882666 0.042666 122.218667-122.24 45.248 45.269334-120.682667 120.682666v20.266667h-0.021333l0.021333 106.666667h-64v-62.933334L185.834667 880.853333l-45.226667-45.269333z" fill="#BED5FF" p-id="17120"></path><path d="M20.266667 478.933333h77.973333L55.893333 436.565333l45.269334-45.226666 87.573333 87.594666h172.842667v64h-170.666667l-14.336 14.314667h-0.021333l-75.392 75.434667-45.269334-45.248 44.501334-44.501334H20.266667v-64z" fill="#2674FD" p-id="17121"></path><path d="M187.349333 141.653333l55.146667 55.146667 0.021333-59.861333h64v123.861333l122.197334 122.24-45.248 45.226667-120.682667-120.661334h-20.266667v-0.042666l-106.666666 0.042666v-64h62.933333L142.08 186.901333 187.349333 141.653333z" fill="#BED5FF" p-id="17122"></path><path d="M496 334.954667l-129.322667 74.666666a32 32 0 0 0-16 27.712v149.333334a32 32 0 0 0 16 27.712l129.322667 74.666666a32 32 0 0 0 32 0l129.322667-74.666666a32 32 0 0 0 16-27.712v-149.333334a32 32 0 0 0-16-27.712l-129.322667-74.666666a32 32 0 0 0-32 0z m16 64.661333l97.322667 56.192v112.362667L512 624.362667l-97.322667-56.192v-112.362667L512 399.616z" fill="#2674FD" p-id="17123"></path><path d="M512 448l55.424 32v64L512 576l-55.424-32v-64z" fill="#39EAC2" p-id="17124"></path></svg>